<?xml version="1.0" encoding="utf-8"?>
<svg xmlns="http://www.w3.org/2000/svg" viewBox="125.031 163.755 36 36" width="36px" height="36px">
  <path fill-rule="evenodd" clip-rule="evenodd" d="M 143.031 199.755 C 152.972 199.755 161.031 191.696 161.031 181.755 C 161.031 171.814 152.972 163.755 143.031 163.755 C 133.09 163.755 125.031 171.814 125.031 181.755 C 125.031 191.696 133.09 199.755 143.031 199.755 Z M 145.809 177.662 C 147.343 176.128 147.343 173.64 145.809 172.106 C 144.275 170.571 141.787 170.571 140.253 172.106 C 138.718 173.64 138.718 176.128 140.253 177.662 L 143.031 180.441 L 145.809 177.662 Z M 147.123 184.533 C 148.658 186.068 151.146 186.068 152.68 184.533 C 154.214 182.999 154.214 180.511 152.68 178.977 C 151.146 177.442 148.658 177.442 147.123 178.977 L 144.345 181.755 L 147.123 184.533 Z M 145.809 191.404 C 147.343 189.87 147.343 187.382 145.809 185.848 L 143.031 183.07 L 140.253 185.848 C 138.718 187.382 138.718 189.87 140.253 191.404 C 141.787 192.939 144.275 192.939 145.809 191.404 Z M 133.382 184.533 C 131.847 182.999 131.847 180.511 133.382 178.977 C 134.916 177.442 137.404 177.442 138.938 178.977 L 141.716 181.755 L 138.938 184.533 C 137.404 186.068 134.916 186.068 133.382 184.533 Z" fill="#0D903A"/>
</svg>